<?xml version="1.0" standalone="no"?>
<!DOCTYPE svg PUBLIC "-//W3C//DTD SVG 20010904//EN"
 "http://www.w3.org/TR/2001/REC-SVG-20010904/DTD/svg10.dtd">
<svg version="1.0" xmlns="http://www.w3.org/2000/svg"
 width="165.000000pt" height="226.000000pt" viewBox="0 0 165.000000 226.000000"
 preserveAspectRatio="xMidYMid meet">

<g transform="translate(0.000000,226.000000) scale(0.100000,-0.100000)"
fill="#000000" stroke="none">
<path d="M632 2195 c-267 -81 -459 -275 -533 -541 -29 -101 -31 -276 -5 -374
70 -265 298 -497 557 -564 136 -35 335 -28 449 15 124 47 193 92 285 184 125
125 188 238 222 398 19 91 12 245 -16 339 -62 210 -211 391 -404 487 -115 58
-180 72 -337 77 -122 4 -143 2 -218 -21z m606 -311 c31 -9 28 -20 -10 -30 -44
-13 -47 -39 -8 -59 17 -9 35 -27 40 -41 6 -14 10 -176 10 -375 l0 -349 -429 0
-428 0 -7 46 c-3 26 -6 217 -6 425 0 351 1 378 18 382 26 7 794 8 820 1z"/>
<path d="M1061 1832 c-6 -11 -11 -25 -11 -31 0 -16 26 -13 40 5 11 12 11 18
-2 31 -15 14 -17 13 -27 -5z"/>
<path d="M1151 1827 c-14 -36 -14 -37 4 -37 21 0 29 24 17 47 -10 16 -12 15
-21 -10z"/>
<path d="M570 1779 c0 -11 4 -18 10 -14 5 3 7 12 3 20 -7 21 -13 19 -13 -6z"/>
<path d="M723 1789 c-7 -7 -29 -15 -50 -20 -33 -6 -30 -7 22 -6 44 2 60 6 60
16 0 19 -18 24 -32 10z"/>
<path d="M745 1579 c28 -91 183 -439 196 -439 5 0 9 2 9 4 0 6 -123 299 -158
377 -30 67 -61 105 -47 58z"/>
<path d="M634 1481 c-16 -10 -48 -39 -72 -63 l-42 -44 69 -67 c38 -37 74 -67
80 -67 23 0 9 28 -39 75 l-50 49 50 51 c27 28 50 56 50 62 0 21 -16 22 -46 4z"/>
<path d="M1020 1482 c0 -4 22 -30 50 -57 l49 -49 -49 -52 c-48 -50 -61 -74
-41 -74 16 0 131 101 131 115 0 7 -28 38 -62 69 -59 54 -78 65 -78 48z"/>
<path d="M103 613 c-24 -2 -43 -8 -43 -12 0 -4 13 -20 29 -35 l30 -28 40 33
c61 51 59 52 -56 42z"/>
<path d="M450 611 c0 -13 40 -61 51 -61 12 0 59 49 59 61 0 5 -25 9 -55 9 -30
0 -55 -4 -55 -9z"/>
<path d="M245 590 c-17 -19 -17 -21 24 -65 26 -28 41 -54 41 -70 0 -14 7 -28
16 -32 40 -15 70 77 40 122 -17 26 -72 65 -92 65 -6 0 -19 -9 -29 -20z"/>
<path d="M571 565 c-44 -48 -61 -81 -61 -120 0 -13 -11 -32 -26 -44 l-26 -21
27 -10 28 -11 -22 -22 c-24 -27 -27 -47 -7 -47 17 0 26 -22 26 -66 0 -46 23
-100 48 -113 32 -17 77 -13 106 10 26 20 26 20 53 1 60 -41 79 -37 151 31 l42
41 0 198 c0 117 -4 198 -9 198 -22 0 -41 -46 -41 -98 0 -29 -6 -68 -14 -87
-11 -25 -11 -34 -3 -32 9 1 13 -29 15 -105 l3 -108 -35 0 c-19 0 -41 7 -49 15
-21 21 -31 146 -23 289 l7 119 -34 -41 c-24 -28 -37 -56 -42 -89 -4 -26 -11
-56 -16 -65 -5 -9 -5 -18 0 -20 4 -2 11 -49 15 -105 l6 -103 -39 0 c-63 0 -66
8 -66 220 0 171 2 190 19 209 11 12 17 21 14 21 -3 0 -24 -20 -47 -45z"/>
<path d="M1115 554 c-37 -38 -58 -69 -66 -97 -6 -23 -20 -57 -31 -74 -16 -28
-17 -33 -4 -33 26 0 28 -19 6 -47 -20 -26 -20 -28 -3 -34 15 -5 19 -21 23 -90
l5 -84 35 -3 c50 -5 105 14 124 43 l16 25 -56 0 -56 0 4 183 c5 178 10 217 30
217 5 0 27 -14 48 -31 39 -32 60 -32 60 0 0 16 -58 81 -73 81 -4 0 -31 -25
-62 -56z"/>
<path d="M1455 590 c-10 -11 -16 -21 -14 -23 2 -1 23 -17 46 -35 49 -38 69
-40 79 -10 5 18 -1 29 -31 55 -45 38 -55 40 -80 13z"/>
<path d="M168 511 c-16 -18 -28 -45 -28 -60 0 -16 -12 -46 -26 -67 -16 -24
-22 -40 -15 -42 29 -10 41 -36 41 -88 0 -58 13 -70 42 -36 22 25 27 72 19 206
l-6 120 -27 -33z"/>
<path d="M1387 519 c-13 -19 -18 -49 -19 -105 -1 -73 1 -79 26 -101 35 -30 54
-29 68 2 26 58 48 15 48 -95 l0 -58 -68 -4 c-50 -2 -76 -9 -100 -26 -17 -13
-32 -28 -32 -33 0 -5 36 -9 79 -9 l79 0 50 57 c66 77 72 92 72 161 0 55 -3 63
-31 86 -38 32 -43 32 -63 1 -20 -30 -51 -33 -66 -6 -5 11 -10 39 -11 63 -1 24
-4 54 -8 68 l-7 25 -17 -26z"/>
<path d="M264 366 c-18 -14 -18 -16 14 -48 29 -31 32 -40 32 -96 l0 -62 -79 6
c-70 6 -83 4 -113 -14 -19 -12 -43 -30 -53 -42 -18 -20 -18 -20 85 -20 l104 0
54 58 c61 65 72 87 72 143 0 69 -65 112 -116 75z"/>
</g>
</svg>
